<?xml version="1.0" encoding="iso-8859-1"?>
<!-- Generator: Adobe Illustrator 18.0.0, SVG Export Plug-In . SVG Version: 6.00 Build 0)  -->
<!DOCTYPE svg PUBLIC "-//W3C//DTD SVG 1.1//EN" "http://www.w3.org/Graphics/SVG/1.1/DTD/svg11.dtd">
<svg version="1.1" id="Capa_1" xmlns="http://www.w3.org/2000/svg" xmlns:xlink="http://www.w3.org/1999/xlink" x="0px" y="0px"
	 viewBox="0 0 297.5 297.5" style="enable-background:new 0 0 297.5 297.5;" xml:space="preserve">
<g id="XMLID_32_">
	<g>
		<path style="fill:#C7A488;" d="M181.035,193.22l-13.85,13.85c-1.82,1.82-2.85,4.29-2.85,6.87v63.89h-28.12v-75.6
			c0-2.58-1.02-5.05-2.84-6.87l-16.91-16.91l3.07-3.07l11.99,11.98c2.77,2.78,6.95,3.61,10.58,2.11c3.63-1.51,6-5.05,6-8.98v-18.14
			h4.35v29.85c0,3.93,2.36,7.47,5.99,8.98c3.63,1.5,7.81,0.67,10.59-2.11l8.92-8.92L181.035,193.22z"/>
		<path style="fill:#7AC1A3;" d="M267.255,119.87c0,13.56-6.01,26.29-16.48,34.93c-2.96,2.43-4.2,6.38-3.19,10.07
			c0.9,3.26,1.35,6.6,1.35,9.96c0,20.61-16.77,37.38-37.38,37.38h-22.04l12.12-12.12c1.82-1.82,2.85-4.29,2.85-6.87
			c0-2.57-1.03-5.04-2.85-6.87l-16.81-16.81c-3.54-3.54-9.13-3.78-12.95-0.71v-16.19c0-5.37-4.35-9.72-9.71-9.72h-23.77
			c-5.37,0-9.72,4.35-9.72,9.72v4.4l-2.27-2.27c-1.82-1.82-4.29-2.84-6.87-2.84c-2.57,0-5.04,1.02-6.86,2.84l-16.82,16.81
			c-3.79,3.8-3.79,9.95,0,13.74l20.93,20.93v5.96h-30.84c-20.62,0-37.39-16.77-37.39-37.38c0-3.36,0.46-6.7,1.35-9.96
			c1.02-3.69-0.23-7.64-3.18-10.07c-10.48-8.64-16.49-21.37-16.49-34.93c0-24.94,20.3-45.24,45.24-45.24c0.64,0,1.26,0.03,1.89,0.06
			c4.61,0.17,8.68-2.85,9.82-7.3c7.2-28.09,32.52-47.71,61.56-47.71c29.05,0,54.36,19.62,61.57,47.71c1.14,4.45,5.24,7.47,9.82,7.3
			c0.62-0.03,1.25-0.06,1.88-0.06C246.965,74.63,267.255,94.93,267.255,119.87z"/>
		<path d="M286.685,119.87c0,17.35-6.88,33.75-19.06,45.85c0.49,3.01,0.74,6.06,0.74,9.11c0,31.32-25.49,56.81-56.81,56.81h-27.79
			v55.9c0,5.37-4.35,9.71-9.71,9.71h-47.55c-5.37,0-9.72-4.34-9.72-9.71v-55.9h-30.84c-31.33,0-56.82-25.49-56.82-56.81
			c0-3.05,0.25-6.1,0.74-9.11c-12.18-12.1-19.05-28.5-19.05-45.85c0-34,26.37-61.95,59.74-64.48c11.64-32.81,42.8-55.14,78.19-55.14
			c35.4,0,66.56,22.33,78.2,55.14C260.305,57.92,286.685,85.87,286.685,119.87z M250.775,154.8c10.47-8.64,16.48-21.37,16.48-34.93
			c0-24.94-20.29-45.24-45.24-45.24c-0.63,0-1.26,0.03-1.88,0.06c-4.58,0.17-8.68-2.85-9.82-7.3
			c-7.21-28.09-32.52-47.71-61.57-47.71c-29.04,0-54.36,19.62-61.56,47.71c-1.14,4.45-5.21,7.47-9.82,7.3
			c-0.63-0.03-1.25-0.06-1.89-0.06c-24.94,0-45.24,20.3-45.24,45.24c0,13.56,6.01,26.29,16.49,34.93c2.95,2.43,4.2,6.38,3.18,10.07
			c-0.89,3.26-1.35,6.6-1.35,9.96c0,20.61,16.77,37.38,37.39,37.38h30.84v-5.96l-20.93-20.93c-3.79-3.79-3.79-9.94,0-13.74
			l16.82-16.81c1.82-1.82,4.29-2.84,6.86-2.84c2.58,0,5.05,1.02,6.87,2.84l2.27,2.27v-4.4c0-5.37,4.35-9.72,9.72-9.72h23.77
			c5.36,0,9.71,4.35,9.71,9.72v16.19c3.82-3.07,9.41-2.83,12.95,0.71l16.81,16.81c1.82,1.83,2.85,4.3,2.85,6.87
			c0,2.58-1.03,5.05-2.85,6.87l-12.12,12.12h22.04c20.61,0,37.38-16.77,37.38-37.38c0-3.36-0.45-6.7-1.35-9.96
			C246.575,161.18,247.815,157.23,250.775,154.8z M167.185,207.07l13.85-13.85l-3.08-3.07l-8.92,8.92
			c-2.78,2.78-6.96,3.61-10.59,2.11c-3.63-1.51-5.99-5.05-5.99-8.98v-29.85h-4.35v18.14c0,3.93-2.37,7.47-6,8.98
			c-3.63,1.5-7.81,0.67-10.58-2.11l-11.99-11.98l-3.07,3.07l16.91,16.91c1.82,1.82,2.84,4.29,2.84,6.87v75.6h28.12v-63.89
			C164.335,211.36,165.365,208.89,167.185,207.07z"/>
	</g>
	<g>
	</g>
</g>
<g>
</g>
<g>
</g>
<g>
</g>
<g>
</g>
<g>
</g>
<g>
</g>
<g>
</g>
<g>
</g>
<g>
</g>
<g>
</g>
<g>
</g>
<g>
</g>
<g>
</g>
<g>
</g>
<g>
</g>
</svg>
